<svg xmlns="http://www.w3.org/2000/svg" xmlns:xlink="http://www.w3.org/1999/xlink" width="200" height="200" class="icon" p-id="7546" t="1561515141871" version="1.1" viewBox="0 0 1024 1024"><defs><style type="text/css"/></defs><path d="M924.4 98.1H98c-36 0-65.2 29.3-65.2 65.2v587.2c0 36 29.3 65.2 65.2 65.2h391.5V881H304.6c-12 0-21.7 9.7-21.7 21.7s9.7 21.8 21.7 21.8h413.2c12 0 21.7-9.7 21.7-21.8 0-12-9.7-21.7-21.7-21.7H533v-65.2h391.5c36 0 65.2-29.3 65.2-65.2V163.3c0-35.9-29.3-65.2-65.3-65.2z m21.8 652.4c0 12-9.8 21.7-21.8 21.7H98c-12 0-21.7-9.7-21.7-21.7V163.3c0-12 9.8-21.7 21.7-21.7h826.4c12 0 21.8 9.7 21.8 21.7v587.2z m0 0" p-id="7547"/></svg>